<svg xmlns="http://www.w3.org/2000/svg" viewBox="0 0 48 48" id="girl-in-love"><path fill="#f6ccaf" d="M32 42a5.41 5.41 0 0 0 0-6h-4.46A12.29 12.29 0 0 1 17 30.06a13 13 0 0 1 4-1.7v-3.94a8.08 8.08 0 0 0 6 0v3.94a12.9 12.9 0 0 1 9 7.86c.68 1.74.67 2.31 2 10.78h-6Z"></path><path fill="#ffdec7" d="M32 13c0 3.91.58 7.78-3.47 10.59A8 8 0 0 1 18 16v-3.25a6.72 6.72 0 0 0 2.17-1.05c1.19-.83.55-.81 1.16-.48C25.27 14 28.74 13.46 32 13Z"></path><path fill="#edb996" d="M27 24.42v2.11a18.17 18.17 0 0 1-4 .41c0 1.71.15 2.35-.74 2.62a12.8 12.8 0 0 0-4.09 2.1 11.45 11.45 0 0 1-1.17-1.6 13 13 0 0 1 4-1.7v-3.94a8.08 8.08 0 0 0 6 0Z"></path><path fill="#f6ccaf" d="M28.53 23.59A8 8 0 0 1 16 17c0-4.6-.07-4 .17-4a6.86 6.86 0 0 0 1.83-.25V16a8 8 0 0 0 10.53 7.59Z"></path><path fill="#ffde76" d="M36 13v23.21a12.86 12.86 0 0 0-9-7.85v-3.94A8 8 0 0 0 32 17v-4c-2.35.33-6.55 1.33-11-2a6.84 6.84 0 0 1-4.83 2c-.24 0-.17-.59-.17 4a8 8 0 0 0 5 7.42v3.94a12.92 12.92 0 0 0-9 7.83V13a12 12 0 1 1 24 0Z"></path><path fill="#fc6" d="M25 1a12 12 0 0 0-11 12c0 27 .52 16.76-2 23.19V13A12 12 0 0 1 25 1Z"></path><path fill="#dad7e5" d="M32 42v5H16v-5a5.41 5.41 0 0 1 0-6v-5.2a10.46 10.46 0 0 1 1-.74A12.31 12.31 0 0 0 27.54 36H32a5.41 5.41 0 0 1 0 6Z"></path><path fill="#f6ccaf" d="M16 36a5.41 5.41 0 0 0 0 6v5h-6c1.36-8.66 1.32-9 2-10.81a12.82 12.82 0 0 1 4-5.39Z"></path><path fill="#edb996" d="M16 30.8v3c-2.75 3.38-2.75 6.29-3.84 13.23H10c1.36-8.66 1.32-9 2-10.81a12.82 12.82 0 0 1 4-5.42Z"></path><path fill="#de4a8c" d="M8 16v5H3a2 2 0 0 1-1-3.76A3.65 3.65 0 0 1 4 17a3.73 3.73 0 0 1 .24-2A2 2 0 0 1 8 16Z"></path><path fill="#f26da6" d="M8 16a3 3 0 0 1-3 3c-1.63 0-3 .27-3.73-1 .63-1.12 1.64-1 2.73-1 0-1.12-.1-1.68.58-2.42A2 2 0 0 1 8 16Z"></path><path fill="#de4a8c" d="M45 10h-5V5a2 2 0 0 1 3.42-1.45c.73.79.58 1.48.58 2.42 1.2 0 2.11-.1 2.73 1A2 2 0 0 1 45 10Z"></path><path fill="#f26da6" d="M46.73 7A2 2 0 0 1 45 8h-2c-3.06 0-4-4.07-1.72-4.87a2 2 0 0 1 2.48.87A3.65 3.65 0 0 1 44 6c.92 0 2.07-.17 2.73 1Z"></path><path fill="#edebf2" d="M32 42v5H18v-5a5.41 5.41 0 0 1 0-6v-4.53C22.25 36.69 27.69 36 32 36a5.41 5.41 0 0 1 0 6Z"></path><path fill="#dad7e5" d="M32.91 39c0 1.4.13-.43-.91-2-5.38 0-11.11.53-15-5.94a10.46 10.46 0 0 0-1 .74v-1a10.46 10.46 0 0 1 1-.74A12.31 12.31 0 0 0 27.54 36H32a5.47 5.47 0 0 1 .91 3Z"></path></svg>