<svg xmlns="http://www.w3.org/2000/svg" enable-background="new 0 0 512 512" viewBox="0 0 512 512"><linearGradient id="a" x1="42.94" x2="469.052" y1="526.872" y2="100.761" gradientUnits="userSpaceOnUse"><stop offset="0" stop-color="#ffae46"/><stop offset=".19" stop-color="#ff9755"/><stop offset=".739" stop-color="#ff5a7d"/><stop offset="1" stop-color="#ff428d"/></linearGradient><path fill="url(#a)" d="M510.031,187.392l-59.876-51.426V90.683c0-11.758-9.566-21.324-21.324-21.324H321.781
		c-2.944,0-5.331,2.387-5.331,5.331s2.387,5.331,5.331,5.331H428.83c5.88,0,10.662,4.782,10.662,10.662v41.524
		c-159.09,0-201.016,0-366.993,0V90.683c0-5.88,4.782-10.662,10.662-10.662h53.15c2.944,0,5.331-2.387,5.331-5.331
		s-2.387-5.331-5.331-5.331h-53.15c-11.758,0-21.324,9.566-21.324,21.324v45.283L1.961,187.392c-1.533,1.319-1.703,2.927-1.844,4.34
		c0.161,30.434,24.957,55.148,55.428,55.148c22.138,0,41.232-13.074,50.112-31.879c8.88,18.805,27.974,31.879,50.112,31.879
		c22.14,0,41.234-13.074,50.115-31.879c8.88,18.805,27.974,31.879,50.112,31.879s41.232-13.074,50.112-31.879
		c8.88,18.805,27.974,31.879,50.112,31.879c22.14,0,41.234-13.074,50.115-31.879c8.88,18.805,27.974,31.879,50.112,31.879
		c30.47,0,55.266-24.714,55.428-55.146C511.976,190.201,511.078,188.293,510.031,187.392z M146.089,142.872h65.628
		c-0.225,0.965-10.723,46.056-10.066,43.235h-85.765C116.478,185.258,147.288,141.156,146.089,142.872z M222.666,142.872h66.66
		c1.716,7.371,10.607,45.558,10.066,43.235H212.6C212.825,185.141,223.323,140.05,222.666,142.872z M310.341,186.106
		c-0.861-3.696-10.663-45.797-10.066-43.235h65.628c0.377,0.54,30.802,44.09,30.204,43.235H310.341z M409.115,186.106
		c-0.393-0.562-32.05-45.876-30.204-43.235h62.326c0.533,0.487,1.162,0.826,1.829,1.061l49.103,42.174H409.115z M68.969,143.896
		c0.648-0.234,1.266-0.551,1.787-1.024h62.326c-0.543,0.777-31.579,45.203-30.204,43.235H19.824L68.969,143.896z M55.546,236.218
		c-22.889,0-41.821-17.261-44.466-39.45h88.932C97.367,218.957,78.435,236.218,55.546,236.218z M155.77,236.218
		c-22.889,0-41.821-17.261-44.466-39.45h88.934C197.593,218.957,178.659,236.218,155.77,236.218z M255.996,236.218
		c-22.889,0-41.821-17.261-44.466-39.45h88.932C297.817,218.957,278.885,236.218,255.996,236.218z M356.22,236.218
		c-22.889,0-41.821-17.261-44.466-39.45h88.934C398.044,218.957,379.109,236.218,356.22,236.218z M456.446,236.218
		c-22.889,0-41.821-17.261-44.466-39.45h88.932C498.267,218.957,479.335,236.218,456.446,236.218z M419.287,467.635
		c8.819,0,15.993-7.174,15.993-15.993V298.367c0-8.819-7.174-15.993-15.993-15.993h-66.613c-8.819,0-15.993,7.174-15.993,15.993
		v153.275c0,8.819,7.174,15.993,15.993,15.993H419.287z M347.343,451.641V298.367c0-2.939,2.392-5.331,5.331-5.331h66.613
		c2.939,0,5.331,2.392,5.331,5.331v153.275c0,2.939-2.392,5.331-5.331,5.331h-66.613
		C349.736,456.973,347.343,454.58,347.343,451.641z M159.315,467.635c8.819,0,15.993-7.174,15.993-15.993V298.367
		c0-8.819-7.174-15.993-15.993-15.993H92.702c-8.819,0-15.993,7.174-15.993,15.993v153.275c0,8.819,7.174,15.993,15.993,15.993
		H159.315z M87.371,451.641V298.367c0-2.939,2.392-5.331,5.331-5.331h66.613c2.939,0,5.331,2.392,5.331,5.331v153.275
		c0,2.939-2.392,5.331-5.331,5.331H92.702C89.763,456.973,87.371,454.58,87.371,451.641z M165.75,112.09
		c2.489,7.426,10.572,11.559,18.128,9.009L253.2,97.815c6.031-2.026,9.76-7.711,9.687-13.759l37.759-12.684
		c6.739-2.263,11.022-8.458,11.262-15.176l50.002-16.795c4.537-1.523,7.775-5.24,8.66-9.946c0.888-4.706-0.778-9.35-4.454-12.422
		L349.462,3.128c-3.452-2.874-8.239-3.774-12.505-2.351c-0.003,0-0.003,0.003-0.003,0.003L297.72,13.959
		c-4.247-5.209-11.402-7.565-18.137-5.3L241.831,21.34c-3.912-5.325-10.392-7.029-16.038-5.119L156.47,39.509
		c-7.484,2.512-11.526,10.644-9.012,18.125L165.75,112.09z M340.349,10.885c0.781-0.263,1.656-0.094,2.28,0.43l16.652,13.903
		c0.932,0.778,0.908,1.754,0.812,2.265c-0.096,0.513-0.43,1.426-1.577,1.814l-48.955,16.441l-7.398-22.025L340.349,10.885z
		 M282.977,18.765c3.107-1.033,6.485,0.635,7.535,3.743l10.49,31.233c1.038,3.108-0.642,6.482-3.75,7.527l-37.049,12.443
		l-12.023-35.79l-2.254-6.71L282.977,18.765z M159.864,49.614l69.323-23.287c1.902-0.634,3.974,0.368,4.626,2.301
		c13.152,39.154-1.23-3.662,18.292,54.454c0.64,1.911-0.39,3.985-2.299,4.628l-69.323,23.285c-1.954,0.642-3.991-0.413-4.628-2.299
		L157.563,54.24C156.929,52.348,157.927,50.269,159.864,49.614z M487.16,506.556c0,2.944-2.387,5.331-5.331,5.331h-19.893
		c-90.416,0-270.089,0-431.773,0c-2.944,0-5.331-2.387-5.331-5.331s2.387-5.331,5.331-5.331h14.562V262.658
		c0-2.944,2.387-5.331,5.331-5.331s5.331,2.387,5.331,5.331v238.567h141.22V355.424c0-8.819,7.174-15.993,15.993-15.993h86.737
		c8.819,0,15.993,7.174,15.993,15.993v129.813c0,2.944-2.387,5.331-5.331,5.331c-2.944,0-5.331-2.387-5.331-5.331V355.424
		c0-2.939-2.392-5.331-5.331-5.331H212.6c-2.939,0-5.331,2.392-5.331,5.331v145.801h249.336V262.658
		c0-2.944,2.387-5.331,5.331-5.331s5.331,2.387,5.331,5.331v238.567h14.562C484.773,501.225,487.16,503.612,487.16,506.556z
		 M213.188,425.689c0,8.788,7.151,15.939,15.939,15.939c8.819,0,15.993-7.151,15.993-15.939c0-8.819-7.174-15.993-15.993-15.993
		C220.339,409.695,213.188,416.87,213.188,425.689z M234.458,425.689c0,2.91-2.392,5.276-5.331,5.276
		c-2.91,0-5.276-2.366-5.276-5.276c0-2.939,2.366-5.331,5.276-5.331C232.115,420.358,234.458,422.7,234.458,425.689z"/></svg>